# xmcd
#
# Track frame offsets: 
#        183
#        20763
#        35823
#        53153
#        69405
#        80173
#        99540
#        113185
#        127550
#        144743
#        177773
#        198950
#        235733
#
# Disc length: 3468 seconds
#
# Revision: 2
# Processed by: cddbd v1.5.2PL0 Copyright (c) Steve Scherf et al.
# Submitted via: ExactAudioCopy v0.95b4
#
DISCID=b00d8a0d
DTITLE=Tomaz Pengov - Odpotovanja
DYEAR=1973
DGENRE=Acid Folk
TTITLE0=Cesta
TTITLE1=Danaja
TTITLE2=V nasmehu nekega dneva
TTITLE3=Potovanja nespecih
TTITLE4=Matala
TTITLE5=Cakajoc nase, brat
TTITLE6=Nerodna pesem
TTITLE7=Kretnje
TTITLE8=Druga jesen
TTITLE9=Oce
TTITLE10=Sarkofagi
TTITLE11=Ladje prostora
TTITLE12=Epistola
EXTD=
EXTT0=
EXTT1=
EXTT2=
EXTT3=
EXTT4=
EXTT5=
EXTT6=
EXTT7=
EXTT8=
EXTT9=
EXTT10=
EXTT11=
EXTT12=
PLAYORDER=
